<svg xmlns="http://www.w3.org/2000/svg" viewBox="0 0 64 64"><title>Noble polyhedron gD-30.1</title><g fill-rule="evenodd" stroke="#34516a" stroke-width="0.3" stroke-linejoin="round"><polygon points="58.25,24.45 28.57,59.41 7.09,19.25 55.39,45.60 11.76,12.67" fill="rgb(166,188,208)"/><polygon points="7.09,41.61 51.59,51.69 44.03,6.86 22.18,56.74 36.37,4.42" fill="rgb(166,188,208)"/><polygon points="52.24,51.33 39.80,9.23 4.23,32.05 58.25,32.80 5.75,39.55" fill="rgb(166,188,208)"/><polygon points="12.67,16.70 57.61,24.81 32.80,57.04 32.57,10.33 24.78,56.20" fill="rgb(166,188,208)"/><polygon points="27.63,59.58 13.25,18.14 53.80,15.42 12.41,48.18 56.91,22.39" fill="rgb(166,188,208)"/><polygon points="39.22,7.80 8.04,41.44 45.44,52.80 19.93,14.57 51.33,47.30" fill="rgb(166,188,208)"/><polygon points="12.41,12.31 19.97,57.14 58.25,32.80 4.23,32.05 57.61,24.81" fill="rgb(166,188,208)"/><polygon points="44.03,51.39 5.75,39.55 35.43,4.59 24.75,57.42 42.40,6.01" fill="rgb(166,188,208)"/><polygon points="35.43,4.59 56.91,44.75 12.41,48.18 53.80,15.42 8.04,41.44" fill="rgb(166,188,208)"/><polygon points="6.39,39.19 31.20,6.96 55.39,45.60 7.09,19.25 51.59,51.69" fill="rgb(166,188,208)"/><polygon points="35.43,54.28 56.91,22.39 12.41,12.31 53.80,47.67 8.04,17.54" fill="rgb(166,188,208)"/><polygon points="49.60,26.48 11.76,12.67 24.20,54.77 35.14,11.01 30.81,57.80" fill="rgb(166,188,208)"/><polygon points="55.96,22.56 18.56,11.20 22.18,56.74 44.03,6.86 28.57,59.41" fill="rgb(166,188,208)"/><polygon points="16.39,37.62 36.37,4.42 50.75,45.86 18.34,16.64 47.61,52.16" fill="rgb(166,188,208)"/><polygon points="21.60,57.99 47.61,27.24 24.75,7.73 35.43,54.28 19.97,12.61" fill="rgb(167,189,209)"/><polygon points="33.19,6.20 42.40,50.54 16.39,45.11 42.95,20.66 14.40,37.52" fill="rgb(167,189,209)"/><polygon points="55.96,46.46 18.56,36.99 22.18,8.59 44.03,51.39 28.57,9.72" fill="rgb(167,189,209)"/><polygon points="16.39,11.84 36.37,52.57 50.75,33.58 18.34,28.92 47.61,26.38" fill="rgb(167,189,209)"/><polygon points="44.03,6.86 5.75,31.20 35.43,54.28 24.75,7.73 42.40,50.54" fill="rgb(167,189,209)"/><polygon points="12.41,48.18 19.97,12.61 58.25,24.45 4.23,34.55 57.61,30.67" fill="rgb(167,189,209)"/><polygon points="7.09,19.25 51.59,15.82 44.03,51.39 22.18,8.59 36.37,52.57" fill="rgb(167,189,209)"/><polygon points="58.25,32.80 28.57,9.72 7.09,41.61 55.39,17.38 11.76,46.05" fill="rgb(167,189,209)"/><polygon points="24.20,54.77 59.77,31.95 19.93,14.57 45.44,52.80 13.25,18.14" fill="rgb(167,189,209)"/><polygon points="42.95,20.66 51.33,47.30 6.39,39.19 57.61,30.67 4.23,34.55" fill="rgb(167,189,209)"/><polygon points="50.75,45.86 10.20,48.58 32.57,10.33 32.80,57.04 39.80,9.23" fill="rgb(167,189,209)"/><polygon points="18.34,28.92 24.78,56.20 55.96,22.56 11.76,46.05 55.39,17.38" fill="rgb(167,189,209)"/><polygon points="21.60,13.46 47.61,18.89 24.75,57.42 35.43,4.59 19.97,57.14" fill="rgb(167,189,209)"/><polygon points="33.19,42.07 42.40,6.01 16.39,36.76 42.95,23.16 14.40,43.37" fill="rgb(167,189,209)"/><polygon points="27.63,11.43 13.25,30.42 53.80,47.67 12.41,12.31 56.91,44.75" fill="rgb(168,190,210)"/><polygon points="39.22,40.05 8.04,17.54 45.44,27.01 19.93,30.88 51.33,30.98" fill="rgb(168,190,210)"/><polygon points="6.39,33.33 31.20,40.33 55.39,17.38 7.09,41.61 51.59,15.82" fill="rgb(168,190,210)"/><polygon points="49.60,20.63 11.76,46.05 24.20,26.55 35.14,33.37 30.81,21.93" fill="rgb(168,190,210)"/><polygon points="59.77,29.45 19.93,30.88 14.40,43.37 49.60,26.48 21.05,43.34" fill="rgb(168,190,210)"/><polygon points="8.61,46.62 42.95,23.16 51.33,30.98 16.39,37.62 45.66,35.08" fill="rgb(168,190,210)"/><polygon points="32.80,57.04 8.61,18.40 42.95,20.66 16.39,45.11 47.61,27.24" fill="rgb(168,190,210)"/><polygon points="52.24,17.95 39.80,37.45 4.23,34.55 58.25,24.45 5.75,31.20" fill="rgb(168,190,210)"/><polygon points="19.93,14.57 14.40,37.52 52.24,51.33 8.04,17.54 53.80,47.67" fill="rgb(168,190,210)"/><polygon points="12.67,33.02 57.61,30.67 32.80,23.67 32.57,34.23 24.78,23.95" fill="rgb(168,190,210)"/><polygon points="45.44,52.80 41.82,7.26 18.34,28.92 50.75,33.58 18.56,36.99" fill="rgb(168,190,210)"/><polygon points="32.57,10.33 47.61,26.38 27.63,59.58 42.40,6.01 24.75,57.42" fill="rgb(168,190,210)"/><polygon points="16.39,36.76 39.25,56.27 35.14,11.01 24.20,54.77 31.20,6.96" fill="rgb(168,190,210)"/><polygon points="35.14,33.37 30.81,57.80 21.60,13.46 36.37,52.57 22.18,8.59" fill="rgb(168,190,210)"/><polygon points="4.23,32.05 44.07,49.43 49.60,26.48 14.40,43.37 42.95,23.16" fill="rgb(168,190,210)"/><polygon points="55.39,45.60 21.05,43.34 12.67,16.70 47.61,52.16 18.34,16.64" fill="rgb(168,190,210)"/><polygon points="45.44,27.01 41.82,55.41 18.34,16.64 50.75,45.86 18.56,11.20" fill="rgb(168,190,210)"/><polygon points="32.57,34.23 47.61,52.16 27.63,11.43 42.40,50.54 24.75,7.73" fill="rgb(168,190,210)"/><polygon points="53.80,15.42 31.43,53.67 16.39,37.62 51.33,30.98 19.93,30.88" fill="rgb(168,190,210)"/><polygon points="22.18,56.74 45.66,35.08 39.22,7.80 30.81,57.80 35.14,11.01" fill="rgb(169,191,211)"/><polygon points="10.20,16.33 32.57,34.23 47.61,52.16 12.67,16.70 44.07,49.43" fill="rgb(169,191,211)"/><polygon points="41.82,55.41 18.34,16.64 24.78,23.95 33.19,42.07 28.86,30.63" fill="rgb(169,191,211)"/><polygon points="39.25,6.58 35.14,33.37 30.81,57.80 39.22,7.80 31.43,53.67" fill="rgb(169,191,211)"/><polygon points="21.05,40.84 12.67,33.02 57.61,30.67 6.39,39.19 59.77,31.95" fill="rgb(169,191,211)"/><polygon points="39.25,56.27 35.14,11.01 30.81,21.93 39.22,40.05 31.43,29.77" fill="rgb(169,191,211)"/><polygon points="39.80,37.45 4.23,34.55 44.07,33.12 18.56,36.99 50.75,33.58" fill="rgb(169,191,211)"/><polygon points="44.07,33.12 49.60,20.63 11.76,46.05 55.96,22.56 10.20,48.58" fill="rgb(169,191,211)"/><polygon points="45.66,47.36 39.22,40.05 8.04,17.54 52.24,51.33 8.61,18.40" fill="rgb(169,191,211)"/><polygon points="31.20,40.33 55.39,17.38 21.05,40.84 47.61,27.24 16.39,45.11" fill="rgb(169,191,211)"/><polygon points="13.25,30.42 53.80,47.67 31.43,29.77 31.20,40.33 24.20,26.55" fill="rgb(169,191,211)"/><polygon points="28.86,52.99 33.19,42.07 42.40,6.01 27.63,59.58 41.82,7.26" fill="rgb(169,191,211)"/><polygon points="47.61,18.89 24.75,57.42 28.86,30.63 39.80,37.45 32.80,23.67" fill="rgb(169,191,211)"/><polygon points="16.39,45.11 39.25,6.58 35.14,33.37 24.20,26.55 31.20,40.33" fill="rgb(170,192,212)"/><polygon points="35.14,11.01 30.81,21.93 21.60,57.99 36.37,4.42 22.18,56.74" fill="rgb(170,192,212)"/><polygon points="50.75,33.58 10.20,16.33 32.57,34.23 32.80,23.67 39.80,37.45" fill="rgb(170,192,212)"/><polygon points="32.80,23.67 8.61,46.62 42.95,23.16 16.39,36.76 47.61,18.89" fill="rgb(170,192,212)"/><polygon points="18.34,16.64 24.78,23.95 55.96,46.46 11.76,12.67 55.39,45.60" fill="rgb(170,192,212)"/><polygon points="19.93,30.88 14.40,43.37 52.24,17.95 8.04,41.44 53.80,15.42" fill="rgb(170,192,212)"/><polygon points="24.20,26.55 59.77,29.45 19.93,30.88 45.44,27.01 13.25,30.42" fill="rgb(170,192,212)"/><polygon points="24.75,7.73 28.86,52.99 33.19,42.07 24.78,23.95 32.57,34.23" fill="rgb(170,192,212)"/><polygon points="42.95,23.16 51.33,30.98 6.39,33.33 57.61,24.81 4.23,32.05" fill="rgb(170,192,212)"/><polygon points="24.75,57.42 28.86,30.63 33.19,6.20 24.78,56.20 32.57,10.33" fill="rgb(170,192,212)"/><polygon points="22.18,8.59 45.66,47.36 39.22,40.05 30.81,21.93 35.14,33.37" fill="rgb(170,192,212)"/><polygon points="53.80,47.67 31.43,29.77 16.39,11.84 51.33,47.30 19.93,14.57" fill="rgb(170,192,212)"/><polygon points="41.82,7.26 18.34,28.92 24.78,56.20 33.19,6.20 28.86,52.99" fill="rgb(170,192,212)"/><polygon points="10.20,48.58 32.57,10.33 47.61,26.38 12.67,33.02 44.07,33.12" fill="rgb(171,193,213)"/><polygon points="31.43,29.77 16.39,11.84 36.37,52.57 21.60,13.46 39.25,56.27" fill="rgb(171,193,213)"/><polygon points="18.56,36.99 22.18,8.59 45.66,47.36 13.25,18.14 45.44,52.80" fill="rgb(171,193,213)"/><polygon points="8.61,18.40 42.95,20.66 51.33,47.30 16.39,11.84 45.66,47.36" fill="rgb(171,193,213)"/><polygon points="59.77,31.95 19.93,14.57 14.40,37.52 49.60,20.63 21.05,40.84" fill="rgb(171,193,213)"/><polygon points="28.86,30.63 33.19,6.20 42.40,50.54 27.63,11.43 41.82,55.41" fill="rgb(171,193,213)"/><polygon points="47.61,27.24 24.75,7.73 28.86,52.99 39.80,9.23 32.80,57.04" fill="rgb(171,193,213)"/><polygon points="31.43,53.67 16.39,37.62 36.37,4.42 21.60,57.99 39.25,6.58" fill="rgb(171,193,213)"/><polygon points="18.56,11.20 22.18,56.74 45.66,35.08 13.25,30.42 45.44,27.01" fill="rgb(171,193,213)"/><polygon points="51.33,30.98 6.39,33.33 31.20,40.33 31.43,29.77 39.22,40.05" fill="rgb(171,193,213)"/><polygon points="44.07,49.43 49.60,26.48 11.76,12.67 55.96,46.46 10.20,16.33" fill="rgb(171,193,213)"/><polygon points="11.76,46.05 24.20,26.55 59.77,29.45 5.75,39.55 58.25,32.80" fill="rgb(171,193,213)"/><polygon points="31.20,6.96 55.39,45.60 21.05,43.34 47.61,18.89 16.39,36.76" fill="rgb(171,193,213)"/><polygon points="55.39,17.38 21.05,40.84 12.67,33.02 47.61,26.38 18.34,28.92" fill="rgb(171,193,213)"/><polygon points="4.23,34.55 44.07,33.12 49.60,20.63 14.40,37.52 42.95,20.66" fill="rgb(171,193,213)"/><polygon points="14.40,43.37 52.24,17.95 39.80,37.45 28.86,30.63 33.19,42.07" fill="rgb(171,193,213)"/><polygon points="57.61,30.67 32.80,23.67 8.61,46.62 56.91,22.39 12.41,48.18" fill="rgb(171,193,213)"/><polygon points="24.78,23.95 55.96,46.46 18.56,36.99 44.07,33.12 12.67,33.02" fill="rgb(171,193,213)"/><polygon points="36.37,52.57 50.75,33.58 10.20,16.33 51.59,51.69 7.09,19.25" fill="rgb(171,193,213)"/><polygon points="30.81,21.93 21.60,57.99 47.61,27.24 21.05,40.84 49.60,20.63" fill="rgb(172,194,214)"/><polygon points="42.40,50.54 16.39,45.11 39.25,6.58 28.57,59.41 44.03,6.86" fill="rgb(172,194,214)"/><polygon points="45.66,35.08 39.22,7.80 8.04,41.44 52.24,17.95 8.61,46.62" fill="rgb(172,194,214)"/><polygon points="13.25,18.14 53.80,15.42 31.43,53.67 31.20,6.96 24.20,54.77" fill="rgb(172,194,214)"/><polygon points="21.05,43.34 12.67,16.70 57.61,24.81 6.39,33.33 59.77,29.45" fill="rgb(172,194,214)"/><polygon points="39.80,9.23 4.23,32.05 44.07,49.43 18.56,11.20 50.75,45.86" fill="rgb(172,194,214)"/><polygon points="5.75,31.20 35.43,54.28 56.91,22.39 8.61,46.62 52.24,17.95" fill="rgb(172,194,214)"/><polygon points="56.91,44.75 12.41,48.18 19.97,12.61 41.82,55.41 27.63,11.43" fill="rgb(172,194,214)"/><polygon points="51.59,15.82 44.03,51.39 5.75,39.55 59.77,29.45 6.39,33.33" fill="rgb(172,194,214)"/><polygon points="19.97,57.14 58.25,32.80 28.57,9.72 39.25,56.27 21.60,13.46" fill="rgb(172,194,214)"/><polygon points="47.61,52.16 27.63,11.43 13.25,30.42 45.66,35.08 16.39,37.62" fill="rgb(172,194,214)"/><polygon points="8.04,17.54 45.44,27.01 41.82,55.41 19.97,12.61 35.43,54.28" fill="rgb(172,194,214)"/><polygon points="30.81,57.80 21.60,13.46 47.61,18.89 21.05,43.34 49.60,26.48" fill="rgb(172,194,214)"/><polygon points="42.40,6.01 16.39,36.76 39.25,56.27 28.57,9.72 44.03,51.39" fill="rgb(172,194,214)"/><polygon points="47.61,26.38 27.63,59.58 13.25,18.14 45.66,47.36 16.39,11.84" fill="rgb(173,195,215)"/><polygon points="8.04,41.44 45.44,52.80 41.82,7.26 19.97,57.14 35.43,4.59" fill="rgb(173,195,215)"/><polygon points="14.40,37.52 52.24,51.33 39.80,9.23 28.86,52.99 33.19,6.20" fill="rgb(173,195,215)"/><polygon points="28.57,9.72 7.09,41.61 51.59,51.69 10.20,16.33 55.96,46.46" fill="rgb(173,195,215)"/><polygon points="57.61,24.81 32.80,57.04 8.61,18.40 56.91,44.75 12.41,12.31" fill="rgb(173,195,215)"/><polygon points="28.57,59.41 7.09,19.25 51.59,15.82 10.20,48.58 55.96,22.56" fill="rgb(173,195,215)"/><polygon points="19.97,12.61 58.25,24.45 28.57,59.41 39.25,6.58 21.60,57.99" fill="rgb(173,195,215)"/><polygon points="51.59,51.69 44.03,6.86 5.75,31.20 59.77,31.95 6.39,39.19" fill="rgb(173,195,215)"/><polygon points="24.78,56.20 55.96,22.56 18.56,11.20 44.07,49.43 12.67,16.70" fill="rgb(173,195,215)"/><polygon points="36.37,4.42 50.75,45.86 10.20,48.58 51.59,15.82 7.09,41.61" fill="rgb(173,195,215)"/><polygon points="51.33,47.30 6.39,39.19 31.20,6.96 31.43,53.67 39.22,7.80" fill="rgb(173,195,215)"/><polygon points="11.76,12.67 24.20,54.77 59.77,31.95 5.75,31.20 58.25,24.45" fill="rgb(173,195,215)"/><polygon points="56.91,22.39 12.41,12.31 19.97,57.14 41.82,7.26 27.63,59.58" fill="rgb(173,195,215)"/><polygon points="5.75,39.55 35.43,4.59 56.91,44.75 8.61,18.40 52.24,51.33" fill="rgb(173,195,215)"/></g></svg>
