<svg xmlns="http://www.w3.org/2000/svg" viewBox="0 0 64 64"><title>Noble polyhedron ID-1</title><g fill-rule="evenodd" stroke="#34516a" stroke-width="0.3" stroke-linejoin="round"><polygon points="25.33,9.98 11.49,39.81 41.72,14.32 38.01,46.83" fill="rgb(146,168,188)"/><polygon points="15.20,23.22 38.01,46.83 25.33,9.98 54.40,25.41" fill="rgb(146,168,188)"/><polygon points="41.72,30.24 11.49,39.81 41.72,14.32 11.49,14.05" fill="rgb(148,170,190)"/><polygon points="25.33,35.74 54.40,25.41 15.20,23.22 38.01,5.15" fill="rgb(148,170,190)"/><polygon points="32.00,57.76 41.72,30.24 15.61,53.42 15.20,23.22" fill="rgb(149,171,191)"/><polygon points="25.33,35.74 11.49,14.05 41.72,30.24 38.01,5.15" fill="rgb(149,171,191)"/><polygon points="58.52,39.02 41.72,14.32 48.39,52.26 25.33,35.74" fill="rgb(150,172,192)"/><polygon points="15.61,53.42 48.39,52.26 11.49,39.81 41.72,30.24" fill="rgb(150,172,192)"/><polygon points="58.52,39.02 32.00,57.76 54.40,25.41 25.33,35.74" fill="rgb(151,173,193)"/><polygon points="32.00,57.76 5.48,40.90 38.01,46.83 15.20,23.22" fill="rgb(152,174,194)"/><polygon points="48.39,52.26 58.52,23.10 38.01,46.83 41.72,14.32" fill="rgb(153,175,195)"/><polygon points="11.49,39.81 25.99,58.85 25.33,35.74 48.39,52.26" fill="rgb(154,176,196)"/><polygon points="54.40,25.41 52.51,49.95 41.72,30.24 32.00,57.76" fill="rgb(155,177,197)"/><polygon points="38.01,46.83 25.99,58.85 25.33,35.74 5.48,40.90" fill="rgb(155,177,197)"/><polygon points="41.72,30.24 58.52,23.10 38.01,46.83 52.51,49.95" fill="rgb(157,179,199)"/><polygon points="5.48,40.90 25.33,35.74 5.48,24.98 25.33,9.98" fill="rgb(157,179,199)"/><polygon points="5.48,24.98 15.61,53.42 11.49,14.05 25.33,35.74" fill="rgb(158,180,200)"/><polygon points="58.52,23.10 41.72,30.24 48.39,10.58 25.33,9.98" fill="rgb(159,181,201)"/><polygon points="48.39,10.58 58.52,39.02 38.01,5.15 41.72,30.24" fill="rgb(160,182,202)"/><polygon points="11.49,39.81 25.33,9.98 5.48,40.90 15.61,11.74" fill="rgb(162,184,204)"/><polygon points="54.40,25.41 25.33,9.98 58.52,23.10 32.00,6.24" fill="rgb(163,185,205)"/><polygon points="11.49,14.05 9.60,38.59 15.20,23.22 15.61,53.42" fill="rgb(164,186,206)"/><polygon points="32.00,6.24 41.72,14.32 15.61,11.74 15.20,23.22" fill="rgb(164,186,206)"/><polygon points="38.01,5.15 52.51,24.19 41.72,14.32 58.52,39.02" fill="rgb(165,187,207)"/><polygon points="11.49,39.81 9.60,38.59 15.20,23.22 15.61,11.74" fill="rgb(166,188,208)"/><polygon points="38.01,5.15 15.20,23.22 32.00,6.24 5.48,24.98" fill="rgb(167,189,209)"/><polygon points="38.67,54.02 15.61,53.42 52.51,49.95 38.01,46.83" fill="rgb(167,189,209)"/><polygon points="11.49,14.05 41.72,14.32 15.61,11.74 48.39,10.58" fill="rgb(167,189,209)"/><polygon points="38.67,54.02 58.52,39.02 25.99,58.85 38.01,46.83" fill="rgb(167,189,209)"/><polygon points="54.40,25.41 52.51,24.19 41.72,14.32 32.00,6.24" fill="rgb(167,189,209)"/><polygon points="22.28,49.68 32.00,57.76 9.60,38.59 11.49,39.81" fill="rgb(172,194,214)"/><polygon points="38.01,5.15 25.99,17.17 25.33,9.98 5.48,24.98" fill="rgb(172,194,214)"/><polygon points="52.51,49.95 22.28,49.68 48.39,52.26 15.61,53.42" fill="rgb(172,194,214)"/><polygon points="25.33,9.98 48.39,10.58 11.49,14.05 25.99,17.17" fill="rgb(172,194,214)"/><polygon points="32.00,57.76 58.52,39.02 25.99,58.85 48.80,40.78" fill="rgb(172,194,214)"/><polygon points="52.51,24.19 54.40,25.41 48.80,40.78 48.39,52.26" fill="rgb(173,195,215)"/><polygon points="22.28,49.68 5.48,24.98 25.99,58.85 11.49,39.81" fill="rgb(174,196,216)"/><polygon points="48.39,52.26 48.80,40.78 32.00,57.76 22.28,49.68" fill="rgb(175,197,217)"/><polygon points="52.51,49.95 54.40,25.41 48.80,40.78 48.39,10.58" fill="rgb(175,197,217)"/><polygon points="5.48,40.90 32.00,57.76 9.60,38.59 38.67,54.02" fill="rgb(176,198,218)"/><polygon points="52.51,24.19 38.67,54.02 58.52,23.10 48.39,52.26" fill="rgb(177,199,219)"/><polygon points="15.61,53.42 5.48,24.98 25.99,58.85 22.28,33.76" fill="rgb(179,201,221)"/><polygon points="5.48,40.90 22.28,33.76 15.61,53.42 38.67,54.02" fill="rgb(180,202,222)"/><polygon points="58.52,39.02 48.39,10.58 52.51,49.95 38.67,28.26" fill="rgb(181,203,223)"/><polygon points="58.52,39.02 38.67,54.02 58.52,23.10 38.67,28.26" fill="rgb(182,204,224)"/><polygon points="22.28,33.76 5.48,40.90 25.99,17.17 11.49,14.05" fill="rgb(182,204,224)"/><polygon points="38.67,28.26 58.52,23.10 25.99,17.17 38.01,5.15" fill="rgb(184,206,226)"/><polygon points="9.60,38.59 11.49,14.05 22.28,33.76 32.00,6.24" fill="rgb(184,206,226)"/><polygon points="38.67,28.26 15.61,11.74 52.51,24.19 38.01,5.15" fill="rgb(185,207,227)"/><polygon points="15.61,11.74 5.48,40.90 25.99,17.17 22.28,49.68" fill="rgb(186,208,228)"/><polygon points="25.99,17.17 48.80,40.78 32.00,6.24 58.52,23.10" fill="rgb(187,209,229)"/><polygon points="5.48,24.98 32.00,6.24 9.60,38.59 38.67,28.26" fill="rgb(188,210,230)"/><polygon points="48.39,10.58 15.61,11.74 52.51,24.19 22.28,33.76" fill="rgb(189,211,231)"/><polygon points="15.61,11.74 38.67,28.26 5.48,24.98 22.28,49.68" fill="rgb(189,211,231)"/><polygon points="38.67,28.26 52.51,49.95 22.28,33.76 25.99,58.85" fill="rgb(190,212,232)"/><polygon points="32.00,6.24 22.28,33.76 48.39,10.58 48.80,40.78" fill="rgb(190,212,232)"/><polygon points="38.67,28.26 9.60,38.59 48.80,40.78 25.99,58.85" fill="rgb(191,213,233)"/><polygon points="22.28,33.76 52.51,24.19 22.28,49.68 52.51,49.95" fill="rgb(191,213,233)"/><polygon points="48.80,40.78 25.99,17.17 38.67,54.02 9.60,38.59" fill="rgb(193,215,235)"/><polygon points="22.28,49.68 25.99,17.17 38.67,54.02 52.51,24.19" fill="rgb(193,215,235)"/></g></svg>
