<svg xmlns="http://www.w3.org/2000/svg" viewBox="0 0 64 64"><title>Noble polyhedron rD-1.1</title><g fill-rule="evenodd" stroke="#34516a" stroke-width="0.3" stroke-linejoin="round"><polygon points="25.10,24.42 8.07,23.47 38.90,45.54 31.23,26.04 50.61,34.73 28.98,42.91" fill="rgb(162,184,204)"/><polygon points="26.66,46.45 48.37,44.78 35.80,12.46 20.53,44.83 5.82,33.51 45.72,15.09" fill="rgb(162,184,204)"/><polygon points="46.82,39.69 28.20,51.54 15.63,19.22 50.61,34.73 54.50,17.18 9.50,27.24" fill="rgb(162,184,204)"/><polygon points="35.02,21.09 46.82,10.47 32.77,47.60 31.23,26.04 20.53,44.83 38.90,39.58" fill="rgb(162,184,204)"/><polygon points="26.66,46.45 25.10,24.42 43.47,19.17 28.20,51.54 35.80,59.74 40.98,10.94" fill="rgb(163,185,205)"/><polygon points="46.82,39.69 35.02,21.09 13.39,29.27 48.37,44.78 45.72,56.41 10.89,21.03" fill="rgb(163,185,205)"/><polygon points="8.07,23.47 18.28,7.59 58.18,40.13 8.07,29.42 18.28,48.91 58.18,30.49" fill="rgb(164,186,206)"/><polygon points="25.10,24.42 26.66,46.45 32.77,37.96 25.10,18.46 26.66,5.13 32.77,47.60" fill="rgb(164,186,206)"/><polygon points="35.02,21.09 46.82,39.69 32.77,37.96 31.23,16.40 20.53,7.18 38.90,45.54" fill="rgb(164,186,206)"/><polygon points="46.82,10.47 28.20,4.26 15.63,54.40 50.61,15.15 54.50,36.76 9.50,46.82" fill="rgb(164,186,206)"/><polygon points="20.53,44.83 31.23,26.04 37.34,17.55 18.28,48.91 15.63,54.40 40.98,10.94" fill="rgb(165,187,207)"/><polygon points="5.82,33.51 9.50,46.82 59.57,33.92 8.07,29.42 25.10,18.46 55.93,40.53" fill="rgb(165,187,207)"/><polygon points="31.23,16.40 50.61,15.15 28.98,42.91 25.10,18.46 8.07,29.42 38.90,39.58" fill="rgb(165,187,207)"/><polygon points="26.66,5.13 48.37,9.60 35.80,59.74 20.53,7.18 5.82,23.87 45.72,56.41" fill="rgb(165,187,207)"/><polygon points="50.61,15.15 31.23,16.40 17.18,53.53 54.50,17.18 58.18,30.49 10.89,50.25" fill="rgb(165,187,207)"/><polygon points="50.61,34.73 31.23,26.04 17.18,24.31 54.50,36.76 58.18,40.13 10.89,21.03" fill="rgb(165,187,207)"/><polygon points="35.80,59.74 17.18,53.53 26.66,5.13 40.98,58.22 53.11,42.97 18.28,7.59" fill="rgb(166,188,208)"/><polygon points="23.02,53.06 10.89,50.25 45.72,15.09 28.20,51.54 46.82,39.69 37.34,17.55" fill="rgb(166,188,208)"/><polygon points="53.11,42.97 59.57,33.92 9.50,27.24 48.37,44.78 26.66,46.45 17.18,24.31" fill="rgb(167,189,209)"/><polygon points="40.98,58.22 23.02,53.06 28.20,4.26 45.72,56.41 55.93,40.53 20.53,7.18" fill="rgb(167,189,209)"/><polygon points="23.02,53.06 40.98,58.22 35.80,12.46 18.28,48.91 8.07,29.42 43.47,19.17" fill="rgb(167,189,209)"/><polygon points="15.63,54.40 37.34,58.87 46.82,10.47 10.89,50.25 4.43,30.08 54.50,17.18" fill="rgb(167,189,209)"/><polygon points="18.28,7.59 15.63,19.22 40.98,58.22 20.53,7.18 31.23,16.40 37.34,58.87" fill="rgb(168,190,210)"/><polygon points="5.82,23.87 9.50,27.24 59.57,33.92 8.07,23.47 25.10,24.42 55.93,34.58" fill="rgb(168,190,210)"/><polygon points="54.50,36.76 50.61,15.15 13.39,29.27 53.11,42.97 40.98,58.22 15.63,19.22" fill="rgb(168,190,210)"/><polygon points="59.57,33.92 53.11,13.75 5.82,33.51 58.18,40.13 43.47,56.82 8.07,23.47" fill="rgb(168,190,210)"/><polygon points="28.20,4.26 35.80,12.46 40.98,58.22 26.66,5.13 25.10,18.46 43.47,56.82" fill="rgb(168,190,210)"/><polygon points="48.37,9.60 45.72,15.09 10.89,50.25 46.82,10.47 35.02,21.09 13.39,48.85" fill="rgb(168,190,210)"/><polygon points="10.89,50.25 23.02,53.06 48.37,9.60 9.50,46.82 13.39,29.27 50.61,15.15" fill="rgb(169,191,211)"/><polygon points="4.43,30.08 10.89,21.03 58.18,40.13 5.82,33.51 20.53,44.83 55.93,34.58" fill="rgb(169,191,211)"/><polygon points="59.57,33.92 53.11,42.97 5.82,23.87 58.18,30.49 43.47,19.17 8.07,29.42" fill="rgb(170,192,212)"/><polygon points="54.50,17.18 50.61,34.73 13.39,48.85 53.11,13.75 40.98,10.94 15.63,54.40" fill="rgb(170,192,212)"/><polygon points="17.18,53.53 28.98,42.91 50.61,15.15 15.63,54.40 18.28,48.91 53.11,13.75" fill="rgb(171,193,213)"/><polygon points="35.80,59.74 28.20,51.54 23.02,5.78 37.34,58.87 38.90,45.54 20.53,7.18" fill="rgb(171,193,213)"/><polygon points="5.82,23.87 20.53,7.18 55.93,40.53 4.43,30.08 10.89,50.25 58.18,30.49" fill="rgb(171,193,213)"/><polygon points="9.50,27.24 13.39,48.85 50.61,34.73 10.89,21.03 23.02,5.78 48.37,44.78" fill="rgb(171,193,213)"/><polygon points="55.93,40.53 38.90,39.58 8.07,29.42 58.18,40.13 54.50,36.76 4.43,30.08" fill="rgb(171,193,213)"/><polygon points="45.72,56.41 48.37,44.78 23.02,5.78 43.47,56.82 32.77,47.60 26.66,5.13" fill="rgb(171,193,213)"/><polygon points="48.37,9.60 26.66,5.13 17.18,53.53 53.11,13.75 59.57,33.92 9.50,46.82" fill="rgb(172,194,214)"/><polygon points="40.98,10.94 23.02,5.78 28.20,51.54 45.72,15.09 55.93,34.58 20.53,44.83" fill="rgb(172,194,214)"/><polygon points="18.28,7.59 8.07,23.47 43.47,56.82 23.02,5.78 40.98,10.94 35.80,59.74" fill="rgb(172,194,214)"/><polygon points="10.89,21.03 4.43,30.08 54.50,36.76 15.63,19.22 37.34,17.55 46.82,39.69" fill="rgb(172,194,214)"/><polygon points="35.80,12.46 17.18,24.31 26.66,46.45 40.98,10.94 53.11,13.75 18.28,48.91" fill="rgb(173,195,215)"/><polygon points="23.02,5.78 10.89,21.03 45.72,56.41 28.20,4.26 46.82,10.47 37.34,58.87" fill="rgb(173,195,215)"/><polygon points="9.50,27.24 5.82,23.87 53.11,42.97 13.39,29.27 32.77,37.96 46.82,39.69" fill="rgb(174,196,216)"/><polygon points="9.50,46.82 5.82,33.51 53.11,13.75 13.39,48.85 32.77,47.60 46.82,10.47" fill="rgb(174,196,216)"/><polygon points="43.47,56.82 58.18,40.13 18.28,7.59 37.34,58.87 15.63,54.40 28.20,4.26" fill="rgb(174,196,216)"/><polygon points="32.77,47.60 13.39,48.85 35.02,21.09 38.90,45.54 55.93,34.58 25.10,24.42" fill="rgb(174,196,216)"/><polygon points="55.93,34.58 38.90,45.54 8.07,23.47 58.18,30.49 54.50,17.18 4.43,30.08" fill="rgb(174,196,216)"/><polygon points="45.72,15.09 48.37,9.60 23.02,53.06 43.47,19.17 32.77,37.96 26.66,46.45" fill="rgb(174,196,216)"/><polygon points="17.18,53.53 35.80,59.74 48.37,9.60 13.39,48.85 9.50,27.24 54.50,17.18" fill="rgb(175,197,217)"/><polygon points="32.77,47.60 43.47,56.82 25.10,18.46 28.98,42.91 17.18,24.31 31.23,26.04" fill="rgb(175,197,217)"/><polygon points="38.90,39.58 37.34,17.55 31.23,26.04 38.90,45.54 37.34,58.87 31.23,16.40" fill="rgb(175,197,217)"/><polygon points="55.93,40.53 45.72,56.41 5.82,23.87 55.93,34.58 45.72,15.09 5.82,33.51" fill="rgb(175,197,217)"/><polygon points="15.63,19.22 18.28,7.59 53.11,42.97 17.18,24.31 28.98,42.91 50.61,34.73" fill="rgb(176,198,218)"/><polygon points="37.34,17.55 38.90,39.58 20.53,44.83 35.80,12.46 28.20,4.26 23.02,53.06" fill="rgb(176,198,218)"/><polygon points="28.98,42.91 17.18,53.53 31.23,16.40 32.77,37.96 43.47,19.17 25.10,24.42" fill="rgb(177,199,219)"/><polygon points="17.18,24.31 35.80,12.46 48.37,44.78 13.39,29.27 9.50,46.82 54.50,36.76" fill="rgb(177,199,219)"/><polygon points="43.47,19.17 58.18,30.49 18.28,48.91 37.34,17.55 15.63,19.22 28.20,51.54" fill="rgb(177,199,219)"/><polygon points="32.77,37.96 13.39,29.27 35.02,21.09 38.90,39.58 55.93,40.53 25.10,18.46" fill="rgb(177,199,219)"/></g></svg>
