<svg xmlns="http://www.w3.org/2000/svg" viewBox="0 0 64 64"><title>Noble polyhedron tI-3.1</title><g fill-rule="evenodd" stroke="#34516a" stroke-width="0.3" stroke-linejoin="round"><polygon points="54.17,29.20 24.53,8.07 14.38,53.45 49.62,49.50 4.79,37.63 34.43,58.76 44.58,13.38 9.34,17.33" fill="rgb(157,179,199)"/><polygon points="41.77,6.45 12.14,24.26 46.82,54.60 57.28,20.02 29.57,56.22 59.21,38.41 24.53,8.07 14.07,42.65" fill="rgb(157,179,199)"/><polygon points="29.88,59.58 9.34,36.80 54.17,21.76 49.93,52.85 38.66,15.63 59.21,38.41 14.38,53.45 18.61,22.36" fill="rgb(159,181,201)"/><polygon points="17.18,9.40 6.72,43.98 44.58,32.85 34.12,4.42 34.12,47.96 44.58,13.38 6.72,24.51 17.18,52.94" fill="rgb(160,182,202)"/><polygon points="14.07,11.15 24.53,39.58 59.21,26.37 29.57,5.24 57.28,39.49 46.82,11.06 12.14,24.26 41.77,45.39" fill="rgb(160,182,202)"/><polygon points="26.27,12.35 6.72,24.51 34.43,58.76 38.66,27.67 22.23,57.55 41.77,45.39 14.07,11.15 9.83,42.24" fill="rgb(161,183,203)"/><polygon points="9.34,36.80 44.58,32.85 34.43,7.78 4.79,25.59 49.62,10.55 14.38,14.50 24.53,39.58 54.17,21.76" fill="rgb(162,184,204)"/><polygon points="26.27,12.35 46.82,11.06 46.82,54.60 26.27,31.83 54.66,46.67 34.12,47.96 34.12,4.42 54.66,27.20" fill="rgb(162,184,204)"/><polygon points="6.72,43.98 26.27,31.83 54.66,46.67 19.42,50.62 57.28,39.49 37.73,51.65 9.34,36.80 44.58,32.85" fill="rgb(164,186,206)"/><polygon points="17.18,52.94 37.73,51.65 54.17,21.76 24.53,39.58 59.21,26.37 38.66,27.67 22.23,57.55 51.86,39.74" fill="rgb(165,187,207)"/><polygon points="39.47,55.93 9.83,34.80 26.27,31.83 46.82,54.60 12.14,24.26 41.77,45.39 25.34,48.37 4.79,25.59" fill="rgb(166,188,208)"/><polygon points="38.66,15.63 34.43,7.78 6.72,43.98 26.27,31.83 9.83,34.80 14.07,42.65 41.77,6.45 22.23,18.61" fill="rgb(166,188,208)"/><polygon points="34.43,58.76 38.66,27.67 49.93,21.35 39.47,55.93 49.62,10.55 45.39,41.64 34.12,47.96 44.58,13.38" fill="rgb(167,189,209)"/><polygon points="38.66,27.67 59.21,26.37 14.38,14.50 18.61,22.36 29.88,16.04 9.34,17.33 54.17,29.20 49.93,21.35" fill="rgb(167,189,209)"/><polygon points="19.42,31.15 29.88,59.58 18.61,22.36 14.38,14.50 24.53,39.58 14.07,11.15 25.34,48.37 29.57,56.22" fill="rgb(169,191,211)"/><polygon points="39.47,24.42 49.93,52.85 38.66,15.63 34.43,7.78 44.58,32.85 34.12,4.42 45.39,41.64 49.62,49.50" fill="rgb(170,192,212)"/><polygon points="14.07,42.65 9.83,34.80 54.66,46.67 34.12,47.96 45.39,41.64 49.62,49.50 4.79,37.63 25.34,36.33" fill="rgb(172,194,214)"/><polygon points="19.42,50.62 29.88,16.04 18.61,22.36 14.38,53.45 24.53,8.07 14.07,42.65 25.34,36.33 29.57,5.24" fill="rgb(172,194,214)"/><polygon points="37.73,32.17 57.28,20.02 29.57,56.22 25.34,48.37 41.77,45.39 22.23,57.55 49.93,21.35 54.17,29.20" fill="rgb(173,195,215)"/><polygon points="17.18,9.40 37.73,32.17 54.17,29.20 24.53,8.07 59.21,38.41 38.66,15.63 22.23,18.61 51.86,39.74" fill="rgb(173,195,215)"/><polygon points="46.82,11.06 26.27,12.35 9.83,42.24 39.47,24.42 4.79,37.63 25.34,36.33 41.77,6.45 12.14,24.26" fill="rgb(174,196,216)"/><polygon points="44.58,13.38 9.34,17.33 37.73,32.17 57.28,20.02 19.42,31.15 54.66,27.20 26.27,12.35 6.72,24.51" fill="rgb(175,197,217)"/><polygon points="37.73,32.17 17.18,9.40 17.18,52.94 37.73,51.65 9.34,36.80 29.88,59.58 29.88,16.04 9.34,17.33" fill="rgb(177,199,219)"/><polygon points="14.38,53.45 49.62,49.50 39.47,24.42 9.83,42.24 54.66,27.20 19.42,31.15 29.57,56.22 59.21,38.41" fill="rgb(177,199,219)"/><polygon points="37.73,51.65 57.28,39.49 29.57,5.24 25.34,36.33 41.77,6.45 22.23,18.61 49.93,52.85 54.17,21.76" fill="rgb(178,200,220)"/><polygon points="49.93,52.85 39.47,24.42 4.79,37.63 34.43,58.76 6.72,24.51 17.18,52.94 51.86,39.74 22.23,18.61" fill="rgb(179,201,221)"/><polygon points="46.82,11.06 57.28,39.49 19.42,50.62 29.88,16.04 29.88,59.58 19.42,31.15 57.28,20.02 46.82,54.60" fill="rgb(179,201,221)"/><polygon points="14.07,11.15 9.83,42.24 54.66,27.20 34.12,4.42 45.39,41.64 49.62,10.55 4.79,25.59 25.34,48.37" fill="rgb(180,202,222)"/><polygon points="34.43,7.78 4.79,25.59 39.47,55.93 49.93,21.35 22.23,57.55 51.86,39.74 17.18,9.40 6.72,43.98" fill="rgb(182,204,224)"/><polygon points="9.83,34.80 39.47,55.93 49.62,10.55 14.38,14.50 59.21,26.37 29.57,5.24 19.42,50.62 54.66,46.67" fill="rgb(182,204,224)"/></g></svg>
